# xmcd CD database file
#
# Track frame offsets:
#	150
#	7026
#	18066
#	24933
#	37584
#	47501
#	49766
#	52398
#	55838
#	63944
#	71774
#	77464
#	94818
#	99047
#	103273
#	112676
#	116905
#	125043
#	129336
#	133388
#	146061
#	158996
#	162807
#
# Disc length: 2215 seconds
#
# Revision: 0
# Processed by: cddbd v1.5.2PL0 Copyright (c) Steve Scherf et al.
# Submitted via: CDex 1.50
#
DISCID=3108a517
DTITLE=Ulrike Haage - das verschwundene m
DYEAR=2016
DGENRE=Jazz
TTITLE0=Die Reise des G. Mastorna I
TTITLE1=Die Reise des G. Mastorna II
TTITLE2=Die Reise des G. Mastorna III
TTITLE3=Die Reise des G. Mastorna IV
TTITLE4=Guten Morgen Buddha
TTITLE5=Erinnerungen
TTITLE6=Alte Filme I
TTITLE7=Alte Filme II
TTITLE8=Alte Filme III
TTITLE9=Verschwunden
TTITLE10=Rückkehr nach Moskau I
TTITLE11=Fremdland
TTITLE12=Rückkehr nach Moskau II
TTITLE13=Rückkehr nach Moskau III
TTITLE14=Die Reise des G. Mastorna V
TTITLE15=Rückkehr nach Moskau IV
TTITLE16=Ruhe
TTITLE17=Ein Tag in Amiens I
TTITLE18=Stille über Kyoto
TTITLE19=Ein Tag in Amiens II
TTITLE20=Zwischenstation
TTITLE21=Nachdenken I
TTITLE22=Nachdenken II
EXTD=YEAR: 2016
EXTT0=
EXTT1=
EXTT2=
EXTT3=
EXTT4=
EXTT5=
EXTT6=
EXTT7=
EXTT8=
EXTT9=
EXTT10=
EXTT11=
EXTT12=
EXTT13=
EXTT14=
EXTT15=
EXTT16=
EXTT17=
EXTT18=
EXTT19=
EXTT20=
EXTT21=
EXTT22=
PLAYORDER=
